M48
;GenerationSoftware,Autodesk,EAGLE,9.6.2*%
;CreationDate,2023-03-23T02:27:58Z*%
FMAT,2
ICI,OFF
METRIC,TZ,000.000
T6C0.740
T5C0.770
T4C0.813
T3C0.900
T2C1.000
%
G90
M71
T2
X6470Y66040
X21470Y66040
T3
X30520Y7620
X33020Y5120
X35520Y7620
X7620Y10120
X5120Y7620
X7620Y5120
T4
X39370Y16510
X36830Y16510
X10160Y50800
X17780Y50800
X35560Y58420
X43180Y58420
X43180Y34290
X35560Y34290
X21590Y26670
X21590Y19050
X25400Y19050
X27940Y19050
X39370Y39370
X36830Y39370
T5
X14130Y41910
X14130Y39370
X14130Y36830
X14130Y34290
X6190Y31750
X14130Y31750
X14130Y29210
X6190Y26670
X6190Y29210
X6190Y34290
X6190Y36830
X6190Y39370
X6190Y41910
X14130Y26670
T6
X34290Y30640
X36830Y30640
X39370Y30640
X41910Y30640
X41910Y22700
X39370Y22700
X36830Y22700
X34290Y22700
X34290Y52230
X36830Y52230
X39370Y52230
X41910Y52230
X41910Y44290
X39370Y44290
X36830Y44290
X34290Y44290
M30