G04 EAGLE Gerber RS-274X export*
G75*
%MOMM*%
%FSLAX34Y34*%
%LPD*%
%INBottom Copper*%
%IPPOS*%
%AMOC8*
5,1,8,0,0,1.08239X$1,22.5*%
G01*
%ADD10P,1.732040X8X22.500000*%
%ADD11P,1.429621X8X202.500000*%
%ADD12P,1.429621X8X112.500000*%
%ADD13P,1.429621X8X22.500000*%
%ADD14R,1.408000X1.408000*%
%ADD15C,1.408000*%
%ADD16R,1.278000X1.278000*%
%ADD17C,1.278000*%
%ADD18R,1.248000X1.248000*%
%ADD19C,1.248000*%
%ADD20P,2.336880X8X22.500000*%
%ADD21C,0.304800*%


D10*
X368300Y177800D03*
X393700Y177800D03*
X368300Y393700D03*
X393700Y393700D03*
D11*
X279400Y190500D03*
X254000Y190500D03*
D12*
X215900Y190500D03*
X215900Y266700D03*
D13*
X355600Y342900D03*
X431800Y342900D03*
D11*
X431800Y558800D03*
X355600Y558800D03*
X139700Y558800D03*
X63500Y558800D03*
D14*
X76200Y51200D03*
D15*
X51200Y76200D03*
X76200Y101200D03*
D14*
X355200Y76200D03*
D15*
X330200Y51200D03*
X305200Y76200D03*
D16*
X61900Y419100D03*
D17*
X61900Y393700D03*
X61900Y368300D03*
X61900Y342900D03*
X61900Y317500D03*
X61900Y292100D03*
X61900Y266700D03*
X141300Y266700D03*
X141300Y292100D03*
X141300Y317500D03*
X141300Y342900D03*
X141300Y368300D03*
X141300Y393700D03*
X141300Y419100D03*
D18*
X342900Y442900D03*
D19*
X368300Y442900D03*
X393700Y442900D03*
X419100Y442900D03*
X419100Y522300D03*
X393700Y522300D03*
X368300Y522300D03*
X342900Y522300D03*
D18*
X342900Y227000D03*
D19*
X368300Y227000D03*
X393700Y227000D03*
X419100Y227000D03*
X419100Y306400D03*
X393700Y306400D03*
X368300Y306400D03*
X342900Y306400D03*
D20*
X69088Y660400D03*
X134112Y660400D03*
D21*
X142494Y472186D02*
X142494Y419100D01*
X141300Y419100D01*
X139700Y474359D02*
X139700Y558800D01*
X139700Y474359D02*
X142494Y472186D01*
X340868Y544068D02*
X340868Y558800D01*
X340868Y544068D02*
X340868Y522478D01*
X342900Y522300D01*
X340868Y315722D02*
X340868Y307340D01*
X340868Y315722D02*
X338074Y318516D01*
X338074Y349250D01*
X349250Y360426D01*
X413512Y360426D01*
X430276Y343662D01*
X342900Y306400D02*
X340868Y307340D01*
X430276Y343662D02*
X431800Y342900D01*
X419100Y290576D02*
X419100Y227000D01*
X419100Y290576D02*
X430276Y301752D01*
X430276Y340868D01*
X431800Y342900D01*
X419100Y366014D02*
X419100Y442900D01*
X419100Y366014D02*
X413512Y360426D01*
X419100Y444246D02*
X343662Y519684D01*
X342900Y522300D01*
X419100Y444246D02*
X419100Y442900D01*
X134112Y564388D02*
X134112Y660400D01*
X134112Y564388D02*
X139700Y558800D01*
X340868Y558800D01*
X355600Y558800D02*
X340868Y544068D01*
X251460Y192786D02*
X217932Y192786D01*
X215900Y190500D01*
X251460Y192786D02*
X254000Y190500D01*
X100584Y379984D02*
X64262Y343662D01*
X100584Y379984D02*
X100584Y475361D01*
X64262Y343662D02*
X61900Y342900D01*
X100584Y475361D02*
X63500Y558800D01*
X69850Y555625D02*
X69850Y659384D01*
X63500Y558800D02*
X69850Y555625D01*
X69850Y659384D02*
X69088Y660400D01*
X64262Y391160D02*
X64262Y382778D01*
X72644Y374396D01*
X72644Y363220D01*
X64262Y354838D01*
X58674Y354838D01*
X50292Y346456D01*
X50292Y338074D01*
X58674Y329692D01*
X276606Y329692D01*
X391160Y444246D01*
X64262Y391160D02*
X61900Y393700D01*
X391160Y444246D02*
X393700Y442900D01*
X61468Y315722D02*
X61468Y293370D01*
X61900Y292100D01*
X61468Y315722D02*
X61900Y317500D01*
X44704Y349250D02*
X61468Y366014D01*
X44704Y349250D02*
X44704Y335280D01*
X61468Y318516D01*
X61468Y366014D02*
X61900Y368300D01*
X61468Y318516D02*
X61900Y317500D01*
X405130Y558800D02*
X431800Y558800D01*
X405130Y558800D02*
X368808Y522478D01*
X368300Y522300D01*
X354838Y75438D02*
X332486Y53086D01*
X330200Y51200D01*
X354838Y75438D02*
X355200Y76200D01*
X368808Y444246D02*
X379984Y444246D01*
X391160Y455422D01*
X396748Y455422D01*
X405130Y447040D01*
X405130Y430276D01*
X368808Y393954D01*
X368300Y442900D02*
X368808Y444246D01*
X368808Y393954D02*
X368300Y393700D01*
X357632Y111760D02*
X357632Y78232D01*
X357632Y111760D02*
X407924Y162052D01*
X407924Y307340D01*
X360426Y354838D01*
X352044Y354838D01*
X343662Y346456D01*
X343662Y321310D01*
X354838Y310134D01*
X354838Y301752D01*
X346456Y293370D01*
X340868Y293370D01*
X332486Y301752D01*
X332486Y357632D01*
X366014Y391160D01*
X357632Y78232D02*
X355200Y76200D01*
X366014Y391160D02*
X368300Y393700D01*
X366014Y332486D02*
X366014Y307340D01*
X366014Y332486D02*
X355600Y342900D01*
X366014Y307340D02*
X368300Y306400D01*
X111760Y103378D02*
X78232Y103378D01*
X111760Y103378D02*
X296164Y287782D01*
X349250Y287782D01*
X366014Y304546D01*
X78232Y103378D02*
X76200Y101200D01*
X366014Y304546D02*
X368300Y306400D01*
X75438Y53086D02*
X53086Y75438D01*
X51200Y76200D01*
X75438Y53086D02*
X76200Y51200D01*
X368808Y180340D02*
X368808Y226314D01*
X368300Y227000D01*
X368808Y180340D02*
X368300Y177800D01*
X391160Y251460D02*
X391160Y304546D01*
X391160Y251460D02*
X368808Y229108D01*
X391160Y304546D02*
X393700Y306400D01*
X368808Y229108D02*
X368300Y227000D01*
X254254Y53086D02*
X78232Y53086D01*
X254254Y53086D02*
X366967Y165799D01*
X78232Y53086D02*
X76200Y51200D01*
X366967Y165799D02*
X368300Y177800D01*
X61468Y410718D02*
X61468Y419100D01*
X61468Y410718D02*
X39116Y388366D01*
X39116Y120142D01*
X69850Y89408D01*
X178816Y89408D01*
X279400Y189992D01*
X61900Y419100D02*
X61468Y419100D01*
X279400Y190500D02*
X279400Y189992D01*
M02*
