G04 EAGLE Gerber RS-274X export*
G75*
%MOMM*%
%FSLAX34Y34*%
%LPD*%
%INTop Copper*%
%IPPOS*%
%AMOC8*
5,1,8,0,0,1.08239X$1,22.5*%
G01*
%ADD10C,0.130000*%
%ADD11C,0.152400*%
%ADD12P,1.732040X8X22.500000*%
%ADD13P,1.429621X8X202.500000*%
%ADD14P,1.429621X8X112.500000*%
%ADD15P,1.429621X8X22.500000*%
%ADD16R,1.408000X1.408000*%
%ADD17C,1.408000*%
%ADD18R,1.278000X1.278000*%
%ADD19C,1.278000*%
%ADD20R,1.248000X1.248000*%
%ADD21C,1.248000*%
%ADD22R,1.270000X2.540000*%
%ADD23P,2.336880X8X22.500000*%
%ADD24C,0.304800*%

G36*
X442998Y10164D02*
X442998Y10164D01*
X443017Y10162D01*
X443119Y10184D01*
X443221Y10200D01*
X443238Y10210D01*
X443258Y10214D01*
X443347Y10267D01*
X443438Y10316D01*
X443452Y10330D01*
X443469Y10340D01*
X443536Y10419D01*
X443608Y10494D01*
X443616Y10512D01*
X443629Y10527D01*
X443668Y10623D01*
X443711Y10717D01*
X443713Y10737D01*
X443721Y10755D01*
X443739Y10922D01*
X443739Y789078D01*
X443736Y789098D01*
X443738Y789117D01*
X443716Y789219D01*
X443700Y789321D01*
X443690Y789338D01*
X443686Y789358D01*
X443633Y789447D01*
X443584Y789538D01*
X443570Y789552D01*
X443560Y789569D01*
X443481Y789636D01*
X443406Y789708D01*
X443388Y789716D01*
X443373Y789729D01*
X443277Y789768D01*
X443183Y789811D01*
X443163Y789813D01*
X443145Y789821D01*
X442978Y789839D01*
X10922Y789839D01*
X10902Y789836D01*
X10883Y789838D01*
X10781Y789816D01*
X10679Y789800D01*
X10662Y789790D01*
X10642Y789786D01*
X10553Y789733D01*
X10462Y789684D01*
X10448Y789670D01*
X10431Y789660D01*
X10364Y789581D01*
X10292Y789506D01*
X10284Y789488D01*
X10271Y789473D01*
X10232Y789377D01*
X10189Y789283D01*
X10187Y789263D01*
X10179Y789245D01*
X10161Y789078D01*
X10161Y10922D01*
X10164Y10902D01*
X10162Y10883D01*
X10184Y10781D01*
X10200Y10679D01*
X10210Y10662D01*
X10214Y10642D01*
X10267Y10553D01*
X10316Y10462D01*
X10330Y10448D01*
X10340Y10431D01*
X10419Y10364D01*
X10494Y10292D01*
X10512Y10284D01*
X10527Y10271D01*
X10623Y10232D01*
X10717Y10189D01*
X10737Y10187D01*
X10755Y10179D01*
X10922Y10161D01*
X442978Y10161D01*
X442998Y10164D01*
G37*
%LPC*%
G36*
X303294Y66619D02*
X303294Y66619D01*
X299773Y68078D01*
X297078Y70773D01*
X295619Y74294D01*
X295619Y78106D01*
X297078Y81627D01*
X299839Y84388D01*
X299860Y84401D01*
X299890Y84437D01*
X299925Y84465D01*
X299968Y84531D01*
X300017Y84591D01*
X300034Y84634D01*
X300058Y84672D01*
X300077Y84748D01*
X300105Y84821D01*
X300107Y84866D01*
X300119Y84911D01*
X300112Y84989D01*
X300116Y85066D01*
X300103Y85110D01*
X300099Y85156D01*
X300069Y85228D01*
X300047Y85303D01*
X300021Y85340D01*
X300003Y85382D01*
X299918Y85489D01*
X299907Y85505D01*
X299903Y85508D01*
X299898Y85513D01*
X297687Y87724D01*
X297687Y118143D01*
X297673Y118233D01*
X297665Y118324D01*
X297653Y118354D01*
X297648Y118386D01*
X297605Y118466D01*
X297569Y118550D01*
X297543Y118582D01*
X297532Y118603D01*
X297509Y118625D01*
X297464Y118681D01*
X233425Y182720D01*
X233425Y392844D01*
X359633Y519051D01*
X359701Y519146D01*
X359771Y519240D01*
X359773Y519246D01*
X359776Y519251D01*
X359811Y519362D01*
X359847Y519474D01*
X359847Y519480D01*
X359849Y519486D01*
X359846Y519603D01*
X359845Y519720D01*
X359843Y519727D01*
X359842Y519732D01*
X359836Y519750D01*
X359798Y519881D01*
X359519Y520553D01*
X359519Y524047D01*
X360856Y527274D01*
X363326Y529744D01*
X366553Y531081D01*
X370047Y531081D01*
X373274Y529744D01*
X375744Y527274D01*
X377081Y524047D01*
X377081Y520553D01*
X375744Y517326D01*
X373274Y514856D01*
X370047Y513519D01*
X366553Y513519D01*
X366348Y513605D01*
X366234Y513631D01*
X366120Y513660D01*
X366114Y513659D01*
X366108Y513661D01*
X365992Y513650D01*
X365875Y513641D01*
X365869Y513638D01*
X365863Y513638D01*
X365756Y513590D01*
X365649Y513544D01*
X365643Y513540D01*
X365638Y513538D01*
X365625Y513525D01*
X365518Y513440D01*
X241778Y389699D01*
X241725Y389625D01*
X241665Y389556D01*
X241653Y389526D01*
X241634Y389500D01*
X241607Y389413D01*
X241573Y389328D01*
X241569Y389287D01*
X241562Y389264D01*
X241563Y389232D01*
X241555Y389161D01*
X241555Y186403D01*
X241569Y186313D01*
X241577Y186222D01*
X241589Y186192D01*
X241594Y186160D01*
X241637Y186080D01*
X241673Y185996D01*
X241699Y185964D01*
X241710Y185943D01*
X241733Y185921D01*
X241778Y185865D01*
X305817Y121826D01*
X305817Y91407D01*
X305831Y91317D01*
X305839Y91226D01*
X305851Y91196D01*
X305856Y91164D01*
X305899Y91084D01*
X305935Y91000D01*
X305961Y90968D01*
X305972Y90947D01*
X305995Y90925D01*
X306040Y90869D01*
X308611Y88298D01*
X308611Y85666D01*
X308630Y85551D01*
X308647Y85435D01*
X308649Y85429D01*
X308650Y85423D01*
X308705Y85319D01*
X308758Y85216D01*
X308763Y85211D01*
X308766Y85206D01*
X308850Y85126D01*
X308934Y85044D01*
X308940Y85040D01*
X308944Y85036D01*
X308961Y85029D01*
X309081Y84963D01*
X310627Y84322D01*
X313322Y81627D01*
X314781Y78106D01*
X314781Y74294D01*
X313322Y70773D01*
X310627Y68078D01*
X307106Y66619D01*
X303294Y66619D01*
G37*
%LPD*%
%LPC*%
G36*
X275612Y181355D02*
X275612Y181355D01*
X270255Y186712D01*
X270255Y194288D01*
X275612Y199645D01*
X283188Y199645D01*
X285502Y197331D01*
X285518Y197319D01*
X285530Y197304D01*
X285618Y197248D01*
X285702Y197187D01*
X285721Y197181D01*
X285737Y197171D01*
X285838Y197145D01*
X285937Y197115D01*
X285957Y197115D01*
X285976Y197111D01*
X286079Y197119D01*
X286182Y197121D01*
X286201Y197128D01*
X286221Y197130D01*
X286316Y197170D01*
X286414Y197206D01*
X286429Y197218D01*
X286447Y197226D01*
X286578Y197331D01*
X291686Y202439D01*
X364015Y202439D01*
X364105Y202453D01*
X364196Y202461D01*
X364226Y202473D01*
X364258Y202478D01*
X364338Y202521D01*
X364422Y202557D01*
X364454Y202583D01*
X364475Y202594D01*
X364497Y202617D01*
X364553Y202662D01*
X385212Y223320D01*
X385280Y223415D01*
X385349Y223509D01*
X385351Y223515D01*
X385355Y223520D01*
X385389Y223631D01*
X385426Y223742D01*
X385426Y223749D01*
X385427Y223755D01*
X385424Y223871D01*
X385423Y223988D01*
X385421Y223996D01*
X385421Y224001D01*
X385415Y224018D01*
X385377Y224149D01*
X384919Y225253D01*
X384919Y228747D01*
X386256Y231974D01*
X388726Y234444D01*
X391953Y235781D01*
X395447Y235781D01*
X398674Y234444D01*
X401144Y231974D01*
X402481Y228747D01*
X402481Y225253D01*
X401144Y222026D01*
X398674Y219556D01*
X395447Y218219D01*
X391923Y218219D01*
X391833Y218205D01*
X391742Y218197D01*
X391712Y218185D01*
X391680Y218180D01*
X391600Y218137D01*
X391516Y218101D01*
X391484Y218075D01*
X391463Y218064D01*
X391441Y218041D01*
X391385Y217996D01*
X367698Y194309D01*
X295369Y194309D01*
X295279Y194295D01*
X295188Y194287D01*
X295158Y194275D01*
X295126Y194270D01*
X295046Y194227D01*
X294962Y194191D01*
X294930Y194165D01*
X294909Y194154D01*
X294887Y194131D01*
X294831Y194086D01*
X288768Y188023D01*
X288715Y187949D01*
X288655Y187880D01*
X288643Y187850D01*
X288624Y187824D01*
X288597Y187737D01*
X288563Y187652D01*
X288559Y187611D01*
X288552Y187588D01*
X288553Y187556D01*
X288545Y187485D01*
X288545Y186712D01*
X283188Y181355D01*
X275612Y181355D01*
G37*
%LPD*%
%LPC*%
G36*
X351812Y549655D02*
X351812Y549655D01*
X346455Y555012D01*
X346455Y562588D01*
X351812Y567945D01*
X352331Y567945D01*
X352421Y567959D01*
X352512Y567967D01*
X352542Y567979D01*
X352574Y567984D01*
X352654Y568027D01*
X352738Y568063D01*
X352771Y568089D01*
X352791Y568100D01*
X352813Y568123D01*
X352869Y568168D01*
X353377Y568676D01*
X389666Y604965D01*
X389719Y605039D01*
X389779Y605108D01*
X389791Y605138D01*
X389810Y605164D01*
X389837Y605251D01*
X389871Y605336D01*
X389875Y605377D01*
X389882Y605400D01*
X389881Y605432D01*
X389889Y605503D01*
X389889Y618998D01*
X389886Y619018D01*
X389888Y619037D01*
X389866Y619139D01*
X389850Y619241D01*
X389840Y619258D01*
X389836Y619278D01*
X389783Y619367D01*
X389734Y619458D01*
X389720Y619472D01*
X389710Y619489D01*
X389631Y619556D01*
X389556Y619628D01*
X389538Y619636D01*
X389523Y619649D01*
X389427Y619688D01*
X389333Y619731D01*
X389313Y619733D01*
X389295Y619741D01*
X389128Y619759D01*
X386298Y619759D01*
X384809Y621248D01*
X384809Y648752D01*
X386298Y650241D01*
X401102Y650241D01*
X402591Y648752D01*
X402591Y621248D01*
X401102Y619759D01*
X398780Y619759D01*
X398760Y619756D01*
X398741Y619758D01*
X398639Y619736D01*
X398537Y619720D01*
X398520Y619710D01*
X398500Y619706D01*
X398411Y619653D01*
X398320Y619604D01*
X398306Y619590D01*
X398289Y619580D01*
X398222Y619501D01*
X398150Y619426D01*
X398142Y619408D01*
X398129Y619393D01*
X398090Y619297D01*
X398047Y619203D01*
X398045Y619183D01*
X398037Y619165D01*
X398019Y618998D01*
X398019Y601820D01*
X362304Y566105D01*
X362292Y566089D01*
X362277Y566077D01*
X362220Y565989D01*
X362160Y565906D01*
X362154Y565887D01*
X362144Y565870D01*
X362118Y565769D01*
X362088Y565671D01*
X362088Y565651D01*
X362084Y565631D01*
X362092Y565528D01*
X362094Y565425D01*
X362101Y565406D01*
X362103Y565386D01*
X362143Y565291D01*
X362179Y565194D01*
X362191Y565178D01*
X362199Y565160D01*
X362304Y565029D01*
X364745Y562588D01*
X364745Y555012D01*
X359388Y549655D01*
X351812Y549655D01*
G37*
%LPD*%
%LPC*%
G36*
X366553Y434119D02*
X366553Y434119D01*
X363326Y435456D01*
X360856Y437926D01*
X359519Y441153D01*
X359519Y444647D01*
X360856Y447874D01*
X363326Y450344D01*
X364273Y450736D01*
X364373Y450798D01*
X364473Y450858D01*
X364477Y450863D01*
X364482Y450866D01*
X364557Y450956D01*
X364633Y451045D01*
X364635Y451051D01*
X364639Y451055D01*
X364681Y451164D01*
X364725Y451273D01*
X364726Y451280D01*
X364727Y451285D01*
X364728Y451303D01*
X364743Y451440D01*
X364743Y451518D01*
X370108Y456883D01*
X370161Y456957D01*
X370221Y457026D01*
X370233Y457056D01*
X370252Y457082D01*
X370279Y457169D01*
X370313Y457254D01*
X370317Y457295D01*
X370324Y457318D01*
X370323Y457350D01*
X370331Y457421D01*
X370331Y504604D01*
X372935Y507208D01*
X384958Y519231D01*
X385027Y519326D01*
X385096Y519420D01*
X385098Y519425D01*
X385102Y519431D01*
X385136Y519542D01*
X385173Y519653D01*
X385173Y519660D01*
X385174Y519666D01*
X385171Y519782D01*
X385170Y519899D01*
X385168Y519907D01*
X385168Y519912D01*
X385162Y519929D01*
X385123Y520060D01*
X384919Y520553D01*
X384919Y524047D01*
X386256Y527274D01*
X388726Y529744D01*
X391953Y531081D01*
X395447Y531081D01*
X398674Y529744D01*
X401144Y527274D01*
X402481Y524047D01*
X402481Y520553D01*
X401144Y517326D01*
X398674Y514856D01*
X395447Y513519D01*
X391953Y513519D01*
X391568Y513679D01*
X391454Y513706D01*
X391341Y513734D01*
X391335Y513734D01*
X391328Y513735D01*
X391212Y513724D01*
X391096Y513715D01*
X391090Y513713D01*
X391084Y513712D01*
X390976Y513664D01*
X390869Y513619D01*
X390863Y513614D01*
X390859Y513612D01*
X390845Y513599D01*
X390738Y513514D01*
X378684Y501459D01*
X378631Y501385D01*
X378571Y501316D01*
X378559Y501286D01*
X378540Y501260D01*
X378513Y501173D01*
X378479Y501088D01*
X378475Y501047D01*
X378468Y501024D01*
X378469Y500992D01*
X378461Y500921D01*
X378461Y453738D01*
X374708Y449986D01*
X374697Y449970D01*
X374681Y449957D01*
X374625Y449870D01*
X374565Y449786D01*
X374559Y449767D01*
X374548Y449750D01*
X374523Y449650D01*
X374492Y449551D01*
X374493Y449531D01*
X374488Y449512D01*
X374496Y449409D01*
X374499Y449305D01*
X374506Y449286D01*
X374507Y449267D01*
X374548Y449172D01*
X374583Y449074D01*
X374596Y449059D01*
X374604Y449040D01*
X374708Y448909D01*
X375744Y447874D01*
X377081Y444647D01*
X377081Y441153D01*
X375744Y437926D01*
X373274Y435456D01*
X370047Y434119D01*
X366553Y434119D01*
G37*
%LPD*%
%LPC*%
G36*
X63564Y647064D02*
X63564Y647064D01*
X55752Y654876D01*
X55752Y665924D01*
X63564Y673736D01*
X74612Y673736D01*
X82424Y665924D01*
X82424Y654876D01*
X74612Y647064D01*
X63564Y647064D01*
G37*
%LPD*%
%LPC*%
G36*
X128588Y647064D02*
X128588Y647064D01*
X120776Y654876D01*
X120776Y665924D01*
X128588Y673736D01*
X139636Y673736D01*
X147448Y665924D01*
X147448Y654876D01*
X139636Y647064D01*
X128588Y647064D01*
G37*
%LPD*%
%LPC*%
G36*
X363933Y167258D02*
X363933Y167258D01*
X357758Y173433D01*
X357758Y182167D01*
X363933Y188342D01*
X372667Y188342D01*
X378842Y182167D01*
X378842Y173433D01*
X372667Y167258D01*
X363933Y167258D01*
G37*
%LPD*%
%LPC*%
G36*
X363933Y383158D02*
X363933Y383158D01*
X357758Y389333D01*
X357758Y398067D01*
X363933Y404242D01*
X372667Y404242D01*
X378842Y398067D01*
X378842Y389333D01*
X372667Y383158D01*
X363933Y383158D01*
G37*
%LPD*%
%LPC*%
G36*
X68108Y41619D02*
X68108Y41619D01*
X66619Y43108D01*
X66619Y59292D01*
X68108Y60781D01*
X84292Y60781D01*
X85781Y59292D01*
X85781Y43108D01*
X84292Y41619D01*
X68108Y41619D01*
G37*
%LPD*%
%LPC*%
G36*
X347108Y66619D02*
X347108Y66619D01*
X345619Y68108D01*
X345619Y84292D01*
X347108Y85781D01*
X363292Y85781D01*
X364781Y84292D01*
X364781Y68108D01*
X363292Y66619D01*
X347108Y66619D01*
G37*
%LPD*%
%LPC*%
G36*
X54458Y410169D02*
X54458Y410169D01*
X52969Y411658D01*
X52969Y426542D01*
X54458Y428031D01*
X69342Y428031D01*
X70831Y426542D01*
X70831Y411658D01*
X69342Y410169D01*
X54458Y410169D01*
G37*
%LPD*%
%LPC*%
G36*
X74294Y91619D02*
X74294Y91619D01*
X70773Y93078D01*
X68078Y95773D01*
X66619Y99294D01*
X66619Y103106D01*
X68078Y106627D01*
X70773Y109322D01*
X74294Y110781D01*
X78106Y110781D01*
X81627Y109322D01*
X84322Y106627D01*
X85781Y103106D01*
X85781Y99294D01*
X84322Y95773D01*
X81627Y93078D01*
X78106Y91619D01*
X74294Y91619D01*
G37*
%LPD*%
%LPC*%
G36*
X49294Y66619D02*
X49294Y66619D01*
X45773Y68078D01*
X43078Y70773D01*
X41619Y74294D01*
X41619Y78106D01*
X43078Y81627D01*
X45773Y84322D01*
X49294Y85781D01*
X53106Y85781D01*
X56627Y84322D01*
X59322Y81627D01*
X60781Y78106D01*
X60781Y74294D01*
X59322Y70773D01*
X56627Y68078D01*
X53106Y66619D01*
X49294Y66619D01*
G37*
%LPD*%
%LPC*%
G36*
X328294Y41619D02*
X328294Y41619D01*
X324773Y43078D01*
X322078Y45773D01*
X320619Y49294D01*
X320619Y53106D01*
X322078Y56627D01*
X324773Y59322D01*
X328294Y60781D01*
X332106Y60781D01*
X335627Y59322D01*
X338322Y56627D01*
X339781Y53106D01*
X339781Y49294D01*
X338322Y45773D01*
X335627Y43078D01*
X332106Y41619D01*
X328294Y41619D01*
G37*
%LPD*%
%LPC*%
G36*
X351812Y333755D02*
X351812Y333755D01*
X346455Y339112D01*
X346455Y346688D01*
X351812Y352045D01*
X359388Y352045D01*
X364745Y346688D01*
X364745Y339112D01*
X359388Y333755D01*
X351812Y333755D01*
G37*
%LPD*%
%LPC*%
G36*
X428012Y333755D02*
X428012Y333755D01*
X422655Y339112D01*
X422655Y346688D01*
X428012Y352045D01*
X435588Y352045D01*
X440945Y346688D01*
X440945Y339112D01*
X435588Y333755D01*
X428012Y333755D01*
G37*
%LPD*%
%LPC*%
G36*
X212112Y181355D02*
X212112Y181355D01*
X206755Y186712D01*
X206755Y194288D01*
X212112Y199645D01*
X219688Y199645D01*
X225045Y194288D01*
X225045Y186712D01*
X219688Y181355D01*
X212112Y181355D01*
G37*
%LPD*%
%LPC*%
G36*
X250212Y181355D02*
X250212Y181355D01*
X244855Y186712D01*
X244855Y194288D01*
X250212Y199645D01*
X257788Y199645D01*
X263145Y194288D01*
X263145Y186712D01*
X257788Y181355D01*
X250212Y181355D01*
G37*
%LPD*%
%LPC*%
G36*
X59712Y549655D02*
X59712Y549655D01*
X54355Y555012D01*
X54355Y562588D01*
X59712Y567945D01*
X67288Y567945D01*
X72645Y562588D01*
X72645Y555012D01*
X67288Y549655D01*
X59712Y549655D01*
G37*
%LPD*%
%LPC*%
G36*
X135912Y549655D02*
X135912Y549655D01*
X130555Y555012D01*
X130555Y562588D01*
X135912Y567945D01*
X143488Y567945D01*
X148845Y562588D01*
X148845Y555012D01*
X143488Y549655D01*
X135912Y549655D01*
G37*
%LPD*%
%LPC*%
G36*
X428012Y549655D02*
X428012Y549655D01*
X422655Y555012D01*
X422655Y562588D01*
X428012Y567945D01*
X435588Y567945D01*
X440945Y562588D01*
X440945Y555012D01*
X435588Y549655D01*
X428012Y549655D01*
G37*
%LPD*%
%LPC*%
G36*
X139524Y257769D02*
X139524Y257769D01*
X136241Y259129D01*
X133729Y261641D01*
X132369Y264924D01*
X132369Y268476D01*
X133729Y271759D01*
X136241Y274271D01*
X139524Y275631D01*
X143076Y275631D01*
X146359Y274271D01*
X148871Y271759D01*
X150231Y268476D01*
X150231Y264924D01*
X148871Y261641D01*
X146359Y259129D01*
X143076Y257769D01*
X139524Y257769D01*
G37*
%LPD*%
%LPC*%
G36*
X60124Y283169D02*
X60124Y283169D01*
X56841Y284529D01*
X54329Y287041D01*
X52969Y290324D01*
X52969Y293876D01*
X54329Y297159D01*
X56841Y299671D01*
X60124Y301031D01*
X63676Y301031D01*
X66959Y299671D01*
X69471Y297159D01*
X70831Y293876D01*
X70831Y290324D01*
X69471Y287041D01*
X66959Y284529D01*
X63676Y283169D01*
X60124Y283169D01*
G37*
%LPD*%
%LPC*%
G36*
X139524Y283169D02*
X139524Y283169D01*
X136241Y284529D01*
X133729Y287041D01*
X132369Y290324D01*
X132369Y293876D01*
X133729Y297159D01*
X136241Y299671D01*
X139524Y301031D01*
X143076Y301031D01*
X146359Y299671D01*
X148871Y297159D01*
X150231Y293876D01*
X150231Y290324D01*
X148871Y287041D01*
X146359Y284529D01*
X143076Y283169D01*
X139524Y283169D01*
G37*
%LPD*%
%LPC*%
G36*
X60124Y308569D02*
X60124Y308569D01*
X56841Y309929D01*
X54329Y312441D01*
X52969Y315724D01*
X52969Y319276D01*
X54329Y322559D01*
X56841Y325071D01*
X60124Y326431D01*
X63676Y326431D01*
X66959Y325071D01*
X69471Y322559D01*
X70831Y319276D01*
X70831Y315724D01*
X69471Y312441D01*
X66959Y309929D01*
X63676Y308569D01*
X60124Y308569D01*
G37*
%LPD*%
%LPC*%
G36*
X60124Y333969D02*
X60124Y333969D01*
X56841Y335329D01*
X54329Y337841D01*
X52969Y341124D01*
X52969Y344676D01*
X54329Y347959D01*
X56841Y350471D01*
X60124Y351831D01*
X63676Y351831D01*
X66959Y350471D01*
X69471Y347959D01*
X70831Y344676D01*
X70831Y341124D01*
X69471Y337841D01*
X66959Y335329D01*
X63676Y333969D01*
X60124Y333969D01*
G37*
%LPD*%
%LPC*%
G36*
X139524Y308569D02*
X139524Y308569D01*
X136241Y309929D01*
X133729Y312441D01*
X132369Y315724D01*
X132369Y319276D01*
X133729Y322559D01*
X136241Y325071D01*
X139524Y326431D01*
X143076Y326431D01*
X146359Y325071D01*
X148871Y322559D01*
X150231Y319276D01*
X150231Y315724D01*
X148871Y312441D01*
X146359Y309929D01*
X143076Y308569D01*
X139524Y308569D01*
G37*
%LPD*%
%LPC*%
G36*
X139524Y333969D02*
X139524Y333969D01*
X136241Y335329D01*
X133729Y337841D01*
X132369Y341124D01*
X132369Y344676D01*
X133729Y347959D01*
X136241Y350471D01*
X139524Y351831D01*
X143076Y351831D01*
X146359Y350471D01*
X148871Y347959D01*
X150231Y344676D01*
X150231Y341124D01*
X148871Y337841D01*
X146359Y335329D01*
X143076Y333969D01*
X139524Y333969D01*
G37*
%LPD*%
%LPC*%
G36*
X60124Y359369D02*
X60124Y359369D01*
X56841Y360729D01*
X54329Y363241D01*
X52969Y366524D01*
X52969Y370076D01*
X54329Y373359D01*
X56841Y375871D01*
X60124Y377231D01*
X63676Y377231D01*
X66959Y375871D01*
X69471Y373359D01*
X70831Y370076D01*
X70831Y366524D01*
X69471Y363241D01*
X66959Y360729D01*
X63676Y359369D01*
X60124Y359369D01*
G37*
%LPD*%
%LPC*%
G36*
X139524Y359369D02*
X139524Y359369D01*
X136241Y360729D01*
X133729Y363241D01*
X132369Y366524D01*
X132369Y370076D01*
X133729Y373359D01*
X136241Y375871D01*
X139524Y377231D01*
X143076Y377231D01*
X146359Y375871D01*
X148871Y373359D01*
X150231Y370076D01*
X150231Y366524D01*
X148871Y363241D01*
X146359Y360729D01*
X143076Y359369D01*
X139524Y359369D01*
G37*
%LPD*%
%LPC*%
G36*
X60124Y384769D02*
X60124Y384769D01*
X56841Y386129D01*
X54329Y388641D01*
X52969Y391924D01*
X52969Y395476D01*
X54329Y398759D01*
X56841Y401271D01*
X60124Y402631D01*
X63676Y402631D01*
X66959Y401271D01*
X69471Y398759D01*
X70831Y395476D01*
X70831Y391924D01*
X69471Y388641D01*
X66959Y386129D01*
X63676Y384769D01*
X60124Y384769D01*
G37*
%LPD*%
%LPC*%
G36*
X139524Y384769D02*
X139524Y384769D01*
X136241Y386129D01*
X133729Y388641D01*
X132369Y391924D01*
X132369Y395476D01*
X133729Y398759D01*
X136241Y401271D01*
X139524Y402631D01*
X143076Y402631D01*
X146359Y401271D01*
X148871Y398759D01*
X150231Y395476D01*
X150231Y391924D01*
X148871Y388641D01*
X146359Y386129D01*
X143076Y384769D01*
X139524Y384769D01*
G37*
%LPD*%
%LPC*%
G36*
X139524Y410169D02*
X139524Y410169D01*
X136241Y411529D01*
X133729Y414041D01*
X132369Y417324D01*
X132369Y420876D01*
X133729Y424159D01*
X136241Y426671D01*
X139524Y428031D01*
X143076Y428031D01*
X146359Y426671D01*
X148871Y424159D01*
X150231Y420876D01*
X150231Y417324D01*
X148871Y414041D01*
X146359Y411529D01*
X143076Y410169D01*
X139524Y410169D01*
G37*
%LPD*%
%LPC*%
G36*
X366553Y297619D02*
X366553Y297619D01*
X363326Y298956D01*
X360856Y301426D01*
X359519Y304653D01*
X359519Y308147D01*
X360856Y311374D01*
X363326Y313844D01*
X366553Y315181D01*
X370047Y315181D01*
X373274Y313844D01*
X375744Y311374D01*
X377081Y308147D01*
X377081Y304653D01*
X375744Y301426D01*
X373274Y298956D01*
X370047Y297619D01*
X366553Y297619D01*
G37*
%LPD*%
%LPC*%
G36*
X417353Y218219D02*
X417353Y218219D01*
X414126Y219556D01*
X411656Y222026D01*
X410319Y225253D01*
X410319Y228747D01*
X411656Y231974D01*
X414126Y234444D01*
X417353Y235781D01*
X420847Y235781D01*
X424074Y234444D01*
X426544Y231974D01*
X427881Y228747D01*
X427881Y225253D01*
X426544Y222026D01*
X424074Y219556D01*
X420847Y218219D01*
X417353Y218219D01*
G37*
%LPD*%
%LPC*%
G36*
X391953Y434119D02*
X391953Y434119D01*
X388726Y435456D01*
X386256Y437926D01*
X384919Y441153D01*
X384919Y444647D01*
X386256Y447874D01*
X388726Y450344D01*
X391953Y451681D01*
X395447Y451681D01*
X398674Y450344D01*
X401144Y447874D01*
X402481Y444647D01*
X402481Y441153D01*
X401144Y437926D01*
X398674Y435456D01*
X395447Y434119D01*
X391953Y434119D01*
G37*
%LPD*%
%LPC*%
G36*
X366553Y218219D02*
X366553Y218219D01*
X363326Y219556D01*
X360856Y222026D01*
X359519Y225253D01*
X359519Y228747D01*
X360856Y231974D01*
X363326Y234444D01*
X366553Y235781D01*
X370047Y235781D01*
X373274Y234444D01*
X375744Y231974D01*
X377081Y228747D01*
X377081Y225253D01*
X375744Y222026D01*
X373274Y219556D01*
X370047Y218219D01*
X366553Y218219D01*
G37*
%LPD*%
%LPC*%
G36*
X417353Y434119D02*
X417353Y434119D01*
X414126Y435456D01*
X411656Y437926D01*
X410319Y441153D01*
X410319Y444647D01*
X411656Y447874D01*
X414126Y450344D01*
X417353Y451681D01*
X420847Y451681D01*
X424074Y450344D01*
X426544Y447874D01*
X427881Y444647D01*
X427881Y441153D01*
X426544Y437926D01*
X424074Y435456D01*
X420847Y434119D01*
X417353Y434119D01*
G37*
%LPD*%
%LPC*%
G36*
X417353Y513519D02*
X417353Y513519D01*
X414126Y514856D01*
X411656Y517326D01*
X410319Y520553D01*
X410319Y524047D01*
X411656Y527274D01*
X414126Y529744D01*
X417353Y531081D01*
X420847Y531081D01*
X424074Y529744D01*
X426544Y527274D01*
X427881Y524047D01*
X427881Y520553D01*
X426544Y517326D01*
X424074Y514856D01*
X420847Y513519D01*
X417353Y513519D01*
G37*
%LPD*%
%LPC*%
G36*
X341153Y513519D02*
X341153Y513519D01*
X337926Y514856D01*
X335456Y517326D01*
X334119Y520553D01*
X334119Y524047D01*
X335456Y527274D01*
X337926Y529744D01*
X341153Y531081D01*
X344647Y531081D01*
X347874Y529744D01*
X350344Y527274D01*
X351681Y524047D01*
X351681Y520553D01*
X350344Y517326D01*
X347874Y514856D01*
X344647Y513519D01*
X341153Y513519D01*
G37*
%LPD*%
%LPC*%
G36*
X341153Y297619D02*
X341153Y297619D01*
X337926Y298956D01*
X335456Y301426D01*
X334119Y304653D01*
X334119Y308147D01*
X335456Y311374D01*
X337926Y313844D01*
X341153Y315181D01*
X344647Y315181D01*
X347874Y313844D01*
X350344Y311374D01*
X351681Y308147D01*
X351681Y304653D01*
X350344Y301426D01*
X347874Y298956D01*
X344647Y297619D01*
X341153Y297619D01*
G37*
%LPD*%
%LPC*%
G36*
X391953Y297619D02*
X391953Y297619D01*
X388726Y298956D01*
X386256Y301426D01*
X384919Y304653D01*
X384919Y308147D01*
X386256Y311374D01*
X388726Y313844D01*
X391953Y315181D01*
X395447Y315181D01*
X398674Y313844D01*
X401144Y311374D01*
X402481Y308147D01*
X402481Y304653D01*
X401144Y301426D01*
X398674Y298956D01*
X395447Y297619D01*
X391953Y297619D01*
G37*
%LPD*%
%LPC*%
G36*
X417353Y297619D02*
X417353Y297619D01*
X414126Y298956D01*
X411656Y301426D01*
X410319Y304653D01*
X410319Y308147D01*
X411656Y311374D01*
X414126Y313844D01*
X417353Y315181D01*
X420847Y315181D01*
X424074Y313844D01*
X426544Y311374D01*
X427881Y308147D01*
X427881Y304653D01*
X426544Y301426D01*
X424074Y298956D01*
X420847Y297619D01*
X417353Y297619D01*
G37*
%LPD*%
%LPC*%
G36*
X395223Y687323D02*
X395223Y687323D01*
X395223Y701041D01*
X400384Y701041D01*
X401031Y700868D01*
X401610Y700533D01*
X402083Y700060D01*
X402418Y699481D01*
X402591Y698834D01*
X402591Y687323D01*
X395223Y687323D01*
G37*
%LPD*%
%LPC*%
G36*
X395223Y670559D02*
X395223Y670559D01*
X395223Y684277D01*
X402591Y684277D01*
X402591Y672766D01*
X402418Y672119D01*
X402083Y671540D01*
X401610Y671067D01*
X401031Y670732D01*
X400384Y670559D01*
X395223Y670559D01*
G37*
%LPD*%
%LPC*%
G36*
X384809Y687323D02*
X384809Y687323D01*
X384809Y698834D01*
X384982Y699481D01*
X385317Y700060D01*
X385790Y700533D01*
X386369Y700868D01*
X387016Y701041D01*
X392177Y701041D01*
X392177Y687323D01*
X384809Y687323D01*
G37*
%LPD*%
%LPC*%
G36*
X387016Y670559D02*
X387016Y670559D01*
X386369Y670732D01*
X385790Y671067D01*
X385317Y671540D01*
X384982Y672119D01*
X384809Y672766D01*
X384809Y684277D01*
X392177Y684277D01*
X392177Y670559D01*
X387016Y670559D01*
G37*
%LPD*%
%LPC*%
G36*
X395223Y179323D02*
X395223Y179323D01*
X395223Y188342D01*
X398067Y188342D01*
X404242Y182167D01*
X404242Y179323D01*
X395223Y179323D01*
G37*
%LPD*%
%LPC*%
G36*
X395223Y395223D02*
X395223Y395223D01*
X395223Y404242D01*
X398067Y404242D01*
X404242Y398067D01*
X404242Y395223D01*
X395223Y395223D01*
G37*
%LPD*%
%LPC*%
G36*
X383158Y179323D02*
X383158Y179323D01*
X383158Y182167D01*
X389333Y188342D01*
X392177Y188342D01*
X392177Y179323D01*
X383158Y179323D01*
G37*
%LPD*%
%LPC*%
G36*
X383158Y395223D02*
X383158Y395223D01*
X383158Y398067D01*
X389333Y404242D01*
X392177Y404242D01*
X392177Y395223D01*
X383158Y395223D01*
G37*
%LPD*%
%LPC*%
G36*
X395223Y167258D02*
X395223Y167258D01*
X395223Y176277D01*
X404242Y176277D01*
X404242Y173433D01*
X398067Y167258D01*
X395223Y167258D01*
G37*
%LPD*%
%LPC*%
G36*
X395223Y383158D02*
X395223Y383158D01*
X395223Y392177D01*
X404242Y392177D01*
X404242Y389333D01*
X398067Y383158D01*
X395223Y383158D01*
G37*
%LPD*%
%LPC*%
G36*
X389333Y383158D02*
X389333Y383158D01*
X383158Y389333D01*
X383158Y392177D01*
X392177Y392177D01*
X392177Y383158D01*
X389333Y383158D01*
G37*
%LPD*%
%LPC*%
G36*
X389333Y167258D02*
X389333Y167258D01*
X383158Y173433D01*
X383158Y176277D01*
X392177Y176277D01*
X392177Y167258D01*
X389333Y167258D01*
G37*
%LPD*%
%LPC*%
G36*
X344423Y228523D02*
X344423Y228523D01*
X344423Y235781D01*
X349474Y235781D01*
X350121Y235608D01*
X350700Y235273D01*
X351173Y234800D01*
X351508Y234221D01*
X351681Y233574D01*
X351681Y228523D01*
X344423Y228523D01*
G37*
%LPD*%
%LPC*%
G36*
X344423Y444423D02*
X344423Y444423D01*
X344423Y451681D01*
X349474Y451681D01*
X350121Y451508D01*
X350700Y451173D01*
X351173Y450700D01*
X351508Y450121D01*
X351681Y449474D01*
X351681Y444423D01*
X344423Y444423D01*
G37*
%LPD*%
%LPC*%
G36*
X334119Y228523D02*
X334119Y228523D01*
X334119Y233574D01*
X334292Y234221D01*
X334627Y234800D01*
X335100Y235273D01*
X335679Y235608D01*
X336326Y235781D01*
X341377Y235781D01*
X341377Y228523D01*
X334119Y228523D01*
G37*
%LPD*%
%LPC*%
G36*
X334119Y444423D02*
X334119Y444423D01*
X334119Y449474D01*
X334292Y450121D01*
X334627Y450700D01*
X335100Y451173D01*
X335679Y451508D01*
X336326Y451681D01*
X341377Y451681D01*
X341377Y444423D01*
X334119Y444423D01*
G37*
%LPD*%
%LPC*%
G36*
X344423Y434119D02*
X344423Y434119D01*
X344423Y441377D01*
X351681Y441377D01*
X351681Y436326D01*
X351508Y435679D01*
X351173Y435100D01*
X350700Y434627D01*
X350121Y434292D01*
X349474Y434119D01*
X344423Y434119D01*
G37*
%LPD*%
%LPC*%
G36*
X344423Y218219D02*
X344423Y218219D01*
X344423Y225477D01*
X351681Y225477D01*
X351681Y220426D01*
X351508Y219779D01*
X351173Y219200D01*
X350700Y218727D01*
X350121Y218392D01*
X349474Y218219D01*
X344423Y218219D01*
G37*
%LPD*%
%LPC*%
G36*
X336326Y434119D02*
X336326Y434119D01*
X335679Y434292D01*
X335100Y434627D01*
X334627Y435100D01*
X334292Y435679D01*
X334119Y436326D01*
X334119Y441377D01*
X341377Y441377D01*
X341377Y434119D01*
X336326Y434119D01*
G37*
%LPD*%
%LPC*%
G36*
X336326Y218219D02*
X336326Y218219D01*
X335679Y218392D01*
X335100Y218727D01*
X334627Y219200D01*
X334292Y219779D01*
X334119Y220426D01*
X334119Y225477D01*
X341377Y225477D01*
X341377Y218219D01*
X336326Y218219D01*
G37*
%LPD*%
%LPC*%
G36*
X217423Y268223D02*
X217423Y268223D01*
X217423Y275845D01*
X219688Y275845D01*
X225045Y270488D01*
X225045Y268223D01*
X217423Y268223D01*
G37*
%LPD*%
%LPC*%
G36*
X217423Y257555D02*
X217423Y257555D01*
X217423Y265177D01*
X225045Y265177D01*
X225045Y262912D01*
X219688Y257555D01*
X217423Y257555D01*
G37*
%LPD*%
%LPC*%
G36*
X206755Y268223D02*
X206755Y268223D01*
X206755Y270488D01*
X212112Y275845D01*
X214377Y275845D01*
X214377Y268223D01*
X206755Y268223D01*
G37*
%LPD*%
%LPC*%
G36*
X212112Y257555D02*
X212112Y257555D01*
X206755Y262912D01*
X206755Y265177D01*
X214377Y265177D01*
X214377Y257555D01*
X212112Y257555D01*
G37*
%LPD*%
%LPC*%
G36*
X63423Y268223D02*
X63423Y268223D01*
X63423Y275503D01*
X64505Y275288D01*
X66130Y274614D01*
X67593Y273637D01*
X68837Y272393D01*
X69814Y270930D01*
X70488Y269305D01*
X70703Y268223D01*
X63423Y268223D01*
G37*
%LPD*%
%LPC*%
G36*
X63423Y265177D02*
X63423Y265177D01*
X70703Y265177D01*
X70488Y264095D01*
X69814Y262470D01*
X68837Y261007D01*
X67593Y259763D01*
X66130Y258786D01*
X64505Y258112D01*
X63423Y257897D01*
X63423Y265177D01*
G37*
%LPD*%
%LPC*%
G36*
X53097Y268223D02*
X53097Y268223D01*
X53312Y269305D01*
X53986Y270930D01*
X54963Y272393D01*
X56207Y273637D01*
X57670Y274614D01*
X59295Y275288D01*
X60377Y275503D01*
X60377Y268223D01*
X53097Y268223D01*
G37*
%LPD*%
%LPC*%
G36*
X59295Y258112D02*
X59295Y258112D01*
X57670Y258786D01*
X56207Y259763D01*
X54963Y261007D01*
X53986Y262470D01*
X53312Y264095D01*
X53097Y265177D01*
X60377Y265177D01*
X60377Y257897D01*
X59295Y258112D01*
G37*
%LPD*%
%LPC*%
G36*
X393699Y177799D02*
X393699Y177799D01*
X393699Y177801D01*
X393701Y177801D01*
X393701Y177799D01*
X393699Y177799D01*
G37*
%LPD*%
%LPC*%
G36*
X215899Y266699D02*
X215899Y266699D01*
X215899Y266701D01*
X215901Y266701D01*
X215901Y266699D01*
X215899Y266699D01*
G37*
%LPD*%
%LPC*%
G36*
X342899Y442899D02*
X342899Y442899D01*
X342899Y442901D01*
X342901Y442901D01*
X342901Y442899D01*
X342899Y442899D01*
G37*
%LPD*%
%LPC*%
G36*
X342899Y226999D02*
X342899Y226999D01*
X342899Y227001D01*
X342901Y227001D01*
X342901Y226999D01*
X342899Y226999D01*
G37*
%LPD*%
%LPC*%
G36*
X61899Y266699D02*
X61899Y266699D01*
X61899Y266701D01*
X61901Y266701D01*
X61901Y266699D01*
X61899Y266699D01*
G37*
%LPD*%
%LPC*%
G36*
X393699Y393699D02*
X393699Y393699D01*
X393699Y393701D01*
X393701Y393701D01*
X393701Y393699D01*
X393699Y393699D01*
G37*
%LPD*%
%LPC*%
G36*
X393699Y685799D02*
X393699Y685799D01*
X393699Y685801D01*
X393701Y685801D01*
X393701Y685799D01*
X393699Y685799D01*
G37*
%LPD*%
D10*
X0Y0D02*
X0Y-222700D01*
X457200Y-222700D02*
X457200Y0D01*
X456550Y-203200D02*
X650Y-203200D01*
X26000Y-200008D01*
X26000Y-206392D01*
X650Y-203200D01*
X26000Y-201900D01*
X26000Y-204500D02*
X650Y-203200D01*
X26000Y-200600D01*
X26000Y-205800D02*
X650Y-203200D01*
X431200Y-200008D02*
X456550Y-203200D01*
X431200Y-200008D02*
X431200Y-206392D01*
X456550Y-203200D01*
X431200Y-201900D01*
X431200Y-204500D02*
X456550Y-203200D01*
X431200Y-200600D01*
X431200Y-205800D02*
X456550Y-203200D01*
D11*
X201154Y-180437D02*
X197541Y-193081D01*
X206572Y-193081D01*
X203863Y-189468D02*
X203863Y-196693D01*
X213173Y-196693D02*
X218591Y-196693D01*
X218709Y-196691D01*
X218827Y-196685D01*
X218945Y-196676D01*
X219062Y-196662D01*
X219179Y-196645D01*
X219296Y-196624D01*
X219411Y-196599D01*
X219526Y-196570D01*
X219640Y-196537D01*
X219752Y-196501D01*
X219863Y-196461D01*
X219973Y-196418D01*
X220082Y-196371D01*
X220189Y-196321D01*
X220294Y-196266D01*
X220397Y-196209D01*
X220498Y-196148D01*
X220598Y-196084D01*
X220695Y-196017D01*
X220790Y-195947D01*
X220882Y-195873D01*
X220973Y-195797D01*
X221060Y-195717D01*
X221145Y-195635D01*
X221227Y-195550D01*
X221307Y-195463D01*
X221383Y-195372D01*
X221457Y-195280D01*
X221527Y-195185D01*
X221594Y-195088D01*
X221658Y-194988D01*
X221719Y-194887D01*
X221776Y-194784D01*
X221831Y-194679D01*
X221881Y-194572D01*
X221928Y-194463D01*
X221971Y-194353D01*
X222011Y-194242D01*
X222047Y-194130D01*
X222080Y-194016D01*
X222109Y-193901D01*
X222134Y-193786D01*
X222155Y-193669D01*
X222172Y-193552D01*
X222186Y-193435D01*
X222195Y-193317D01*
X222201Y-193199D01*
X222203Y-193081D01*
X222204Y-193081D02*
X222204Y-191274D01*
X222203Y-191274D02*
X222201Y-191156D01*
X222195Y-191038D01*
X222186Y-190920D01*
X222172Y-190803D01*
X222155Y-190686D01*
X222134Y-190569D01*
X222109Y-190454D01*
X222080Y-190339D01*
X222047Y-190225D01*
X222011Y-190113D01*
X221971Y-190002D01*
X221928Y-189892D01*
X221881Y-189783D01*
X221831Y-189676D01*
X221776Y-189571D01*
X221719Y-189468D01*
X221658Y-189367D01*
X221594Y-189267D01*
X221527Y-189170D01*
X221457Y-189075D01*
X221383Y-188983D01*
X221307Y-188892D01*
X221227Y-188805D01*
X221145Y-188720D01*
X221060Y-188638D01*
X220973Y-188558D01*
X220882Y-188482D01*
X220790Y-188408D01*
X220695Y-188338D01*
X220598Y-188271D01*
X220498Y-188207D01*
X220397Y-188146D01*
X220294Y-188089D01*
X220189Y-188034D01*
X220082Y-187984D01*
X219973Y-187937D01*
X219863Y-187894D01*
X219752Y-187854D01*
X219640Y-187818D01*
X219526Y-187785D01*
X219411Y-187756D01*
X219296Y-187731D01*
X219179Y-187710D01*
X219062Y-187693D01*
X218945Y-187679D01*
X218827Y-187670D01*
X218709Y-187664D01*
X218591Y-187662D01*
X213173Y-187662D01*
X213173Y-180437D01*
X222204Y-180437D01*
X228178Y-195790D02*
X228178Y-196693D01*
X228178Y-195790D02*
X229081Y-195790D01*
X229081Y-196693D01*
X228178Y-196693D01*
X235056Y-182243D02*
X235056Y-180437D01*
X244087Y-180437D01*
X239572Y-196693D01*
X255655Y-180437D02*
X255780Y-180439D01*
X255905Y-180445D01*
X256030Y-180454D01*
X256154Y-180468D01*
X256278Y-180485D01*
X256402Y-180506D01*
X256524Y-180531D01*
X256646Y-180560D01*
X256767Y-180592D01*
X256887Y-180628D01*
X257006Y-180668D01*
X257123Y-180711D01*
X257239Y-180758D01*
X257354Y-180809D01*
X257466Y-180863D01*
X257578Y-180921D01*
X257687Y-180981D01*
X257794Y-181046D01*
X257900Y-181113D01*
X258003Y-181184D01*
X258104Y-181258D01*
X258203Y-181335D01*
X258299Y-181415D01*
X258393Y-181498D01*
X258484Y-181583D01*
X258573Y-181672D01*
X258658Y-181763D01*
X258741Y-181857D01*
X258821Y-181953D01*
X258898Y-182052D01*
X258972Y-182153D01*
X259043Y-182256D01*
X259110Y-182362D01*
X259175Y-182469D01*
X259235Y-182578D01*
X259293Y-182690D01*
X259347Y-182802D01*
X259398Y-182917D01*
X259445Y-183033D01*
X259488Y-183150D01*
X259528Y-183269D01*
X259564Y-183389D01*
X259596Y-183510D01*
X259625Y-183632D01*
X259650Y-183754D01*
X259671Y-183878D01*
X259688Y-184002D01*
X259702Y-184126D01*
X259711Y-184251D01*
X259717Y-184376D01*
X259719Y-184501D01*
X255655Y-180437D02*
X255512Y-180439D01*
X255370Y-180445D01*
X255227Y-180455D01*
X255085Y-180468D01*
X254944Y-180486D01*
X254802Y-180507D01*
X254662Y-180532D01*
X254522Y-180561D01*
X254383Y-180594D01*
X254245Y-180631D01*
X254108Y-180671D01*
X253973Y-180715D01*
X253838Y-180763D01*
X253705Y-180815D01*
X253573Y-180870D01*
X253443Y-180929D01*
X253315Y-180991D01*
X253188Y-181057D01*
X253063Y-181126D01*
X252940Y-181198D01*
X252819Y-181274D01*
X252701Y-181353D01*
X252584Y-181436D01*
X252470Y-181521D01*
X252358Y-181610D01*
X252249Y-181701D01*
X252142Y-181796D01*
X252037Y-181893D01*
X251936Y-181994D01*
X251837Y-182097D01*
X251741Y-182202D01*
X251648Y-182311D01*
X251558Y-182422D01*
X251471Y-182535D01*
X251387Y-182650D01*
X251307Y-182768D01*
X251229Y-182888D01*
X251155Y-183010D01*
X251085Y-183134D01*
X251017Y-183260D01*
X250954Y-183388D01*
X250893Y-183517D01*
X250836Y-183648D01*
X250783Y-183780D01*
X250734Y-183914D01*
X250688Y-184049D01*
X258363Y-187662D02*
X258457Y-187570D01*
X258547Y-187476D01*
X258635Y-187379D01*
X258720Y-187279D01*
X258802Y-187177D01*
X258880Y-187072D01*
X258956Y-186965D01*
X259028Y-186856D01*
X259097Y-186745D01*
X259163Y-186631D01*
X259225Y-186516D01*
X259284Y-186399D01*
X259339Y-186280D01*
X259390Y-186160D01*
X259438Y-186038D01*
X259483Y-185915D01*
X259523Y-185791D01*
X259560Y-185665D01*
X259593Y-185538D01*
X259622Y-185411D01*
X259648Y-185282D01*
X259669Y-185153D01*
X259687Y-185023D01*
X259700Y-184893D01*
X259710Y-184763D01*
X259716Y-184632D01*
X259718Y-184501D01*
X258364Y-187662D02*
X250687Y-196693D01*
X259719Y-196693D01*
D10*
X0Y800000D02*
X-210000Y800000D01*
X-210000Y0D02*
X0Y0D01*
X-190500Y650D02*
X-190500Y799350D01*
X-193692Y774000D01*
X-187308Y774000D01*
X-190500Y799350D01*
X-191800Y774000D01*
X-189200Y774000D02*
X-190500Y799350D01*
X-193100Y774000D01*
X-187900Y774000D02*
X-190500Y799350D01*
X-193692Y26000D02*
X-190500Y650D01*
X-193692Y26000D02*
X-187308Y26000D01*
X-190500Y650D01*
X-191800Y26000D01*
X-189200Y26000D02*
X-190500Y650D01*
X-193100Y26000D01*
X-187900Y26000D02*
X-190500Y650D01*
D11*
X-201523Y368941D02*
X-201656Y368943D01*
X-201788Y368949D01*
X-201920Y368959D01*
X-202052Y368972D01*
X-202184Y368990D01*
X-202314Y369011D01*
X-202445Y369036D01*
X-202574Y369065D01*
X-202702Y369098D01*
X-202830Y369134D01*
X-202956Y369174D01*
X-203081Y369218D01*
X-203205Y369266D01*
X-203327Y369317D01*
X-203448Y369372D01*
X-203567Y369430D01*
X-203685Y369492D01*
X-203800Y369557D01*
X-203914Y369626D01*
X-204025Y369697D01*
X-204134Y369773D01*
X-204241Y369851D01*
X-204346Y369932D01*
X-204448Y370017D01*
X-204548Y370104D01*
X-204645Y370194D01*
X-204740Y370287D01*
X-204831Y370383D01*
X-204920Y370481D01*
X-205006Y370582D01*
X-205089Y370686D01*
X-205169Y370792D01*
X-205245Y370900D01*
X-205319Y371010D01*
X-205389Y371123D01*
X-205456Y371237D01*
X-205519Y371354D01*
X-205579Y371472D01*
X-205636Y371592D01*
X-205689Y371714D01*
X-205738Y371837D01*
X-205784Y371961D01*
X-205826Y372087D01*
X-205864Y372214D01*
X-205899Y372342D01*
X-205930Y372471D01*
X-205957Y372600D01*
X-205980Y372731D01*
X-206000Y372862D01*
X-206015Y372994D01*
X-206027Y373126D01*
X-206035Y373258D01*
X-206039Y373391D01*
X-206039Y373523D01*
X-206035Y373656D01*
X-206027Y373788D01*
X-206015Y373920D01*
X-206000Y374052D01*
X-205980Y374183D01*
X-205957Y374314D01*
X-205930Y374443D01*
X-205899Y374572D01*
X-205864Y374700D01*
X-205826Y374827D01*
X-205784Y374953D01*
X-205738Y375077D01*
X-205689Y375200D01*
X-205636Y375322D01*
X-205579Y375442D01*
X-205519Y375560D01*
X-205456Y375677D01*
X-205389Y375791D01*
X-205319Y375904D01*
X-205245Y376014D01*
X-205169Y376122D01*
X-205089Y376228D01*
X-205006Y376332D01*
X-204920Y376433D01*
X-204831Y376531D01*
X-204740Y376627D01*
X-204645Y376720D01*
X-204548Y376810D01*
X-204448Y376897D01*
X-204346Y376982D01*
X-204241Y377063D01*
X-204134Y377141D01*
X-204025Y377217D01*
X-203914Y377288D01*
X-203800Y377357D01*
X-203685Y377422D01*
X-203567Y377484D01*
X-203448Y377542D01*
X-203327Y377597D01*
X-203205Y377648D01*
X-203081Y377696D01*
X-202956Y377740D01*
X-202830Y377780D01*
X-202702Y377816D01*
X-202574Y377849D01*
X-202445Y377878D01*
X-202314Y377903D01*
X-202184Y377924D01*
X-202052Y377942D01*
X-201920Y377955D01*
X-201788Y377965D01*
X-201656Y377971D01*
X-201523Y377973D01*
X-201390Y377971D01*
X-201258Y377965D01*
X-201126Y377955D01*
X-200994Y377942D01*
X-200862Y377924D01*
X-200732Y377903D01*
X-200601Y377878D01*
X-200472Y377849D01*
X-200344Y377816D01*
X-200216Y377780D01*
X-200090Y377740D01*
X-199965Y377696D01*
X-199841Y377648D01*
X-199719Y377597D01*
X-199598Y377542D01*
X-199479Y377484D01*
X-199361Y377422D01*
X-199246Y377357D01*
X-199132Y377288D01*
X-199021Y377217D01*
X-198912Y377141D01*
X-198805Y377063D01*
X-198700Y376982D01*
X-198598Y376897D01*
X-198498Y376810D01*
X-198401Y376720D01*
X-198306Y376627D01*
X-198215Y376531D01*
X-198126Y376433D01*
X-198040Y376332D01*
X-197957Y376228D01*
X-197877Y376122D01*
X-197801Y376014D01*
X-197727Y375904D01*
X-197657Y375791D01*
X-197590Y375677D01*
X-197527Y375560D01*
X-197467Y375442D01*
X-197410Y375322D01*
X-197357Y375200D01*
X-197308Y375077D01*
X-197262Y374953D01*
X-197220Y374827D01*
X-197182Y374700D01*
X-197147Y374572D01*
X-197116Y374443D01*
X-197089Y374314D01*
X-197066Y374183D01*
X-197046Y374052D01*
X-197031Y373920D01*
X-197019Y373788D01*
X-197011Y373656D01*
X-197007Y373523D01*
X-197007Y373391D01*
X-197011Y373258D01*
X-197019Y373126D01*
X-197031Y372994D01*
X-197046Y372862D01*
X-197066Y372731D01*
X-197089Y372600D01*
X-197116Y372471D01*
X-197147Y372342D01*
X-197182Y372214D01*
X-197220Y372087D01*
X-197262Y371961D01*
X-197308Y371837D01*
X-197357Y371714D01*
X-197410Y371592D01*
X-197467Y371472D01*
X-197527Y371354D01*
X-197590Y371237D01*
X-197657Y371123D01*
X-197727Y371010D01*
X-197801Y370900D01*
X-197877Y370792D01*
X-197957Y370686D01*
X-198040Y370582D01*
X-198126Y370481D01*
X-198215Y370383D01*
X-198306Y370287D01*
X-198401Y370194D01*
X-198498Y370104D01*
X-198598Y370017D01*
X-198700Y369932D01*
X-198805Y369851D01*
X-198912Y369773D01*
X-199021Y369697D01*
X-199132Y369626D01*
X-199246Y369557D01*
X-199361Y369492D01*
X-199479Y369430D01*
X-199598Y369372D01*
X-199719Y369317D01*
X-199841Y369266D01*
X-199965Y369218D01*
X-200090Y369174D01*
X-200216Y369134D01*
X-200344Y369098D01*
X-200472Y369065D01*
X-200601Y369036D01*
X-200732Y369011D01*
X-200862Y368990D01*
X-200994Y368972D01*
X-201126Y368959D01*
X-201258Y368949D01*
X-201390Y368943D01*
X-201523Y368941D01*
X-209651Y369845D02*
X-209770Y369847D01*
X-209890Y369853D01*
X-210009Y369863D01*
X-210127Y369877D01*
X-210246Y369894D01*
X-210363Y369916D01*
X-210480Y369941D01*
X-210595Y369971D01*
X-210710Y370004D01*
X-210824Y370041D01*
X-210936Y370081D01*
X-211047Y370126D01*
X-211156Y370174D01*
X-211264Y370225D01*
X-211370Y370280D01*
X-211474Y370339D01*
X-211576Y370401D01*
X-211676Y370466D01*
X-211774Y370535D01*
X-211870Y370607D01*
X-211963Y370682D01*
X-212053Y370759D01*
X-212141Y370840D01*
X-212226Y370924D01*
X-212308Y371011D01*
X-212388Y371100D01*
X-212464Y371192D01*
X-212538Y371286D01*
X-212608Y371383D01*
X-212675Y371481D01*
X-212739Y371582D01*
X-212799Y371686D01*
X-212856Y371791D01*
X-212909Y371898D01*
X-212959Y372006D01*
X-213005Y372116D01*
X-213047Y372228D01*
X-213086Y372341D01*
X-213121Y372455D01*
X-213152Y372570D01*
X-213180Y372687D01*
X-213203Y372804D01*
X-213223Y372921D01*
X-213239Y373040D01*
X-213251Y373159D01*
X-213259Y373278D01*
X-213263Y373397D01*
X-213263Y373517D01*
X-213259Y373636D01*
X-213251Y373755D01*
X-213239Y373874D01*
X-213223Y373993D01*
X-213203Y374110D01*
X-213180Y374227D01*
X-213152Y374344D01*
X-213121Y374459D01*
X-213086Y374573D01*
X-213047Y374686D01*
X-213005Y374798D01*
X-212959Y374908D01*
X-212909Y375016D01*
X-212856Y375123D01*
X-212799Y375228D01*
X-212739Y375332D01*
X-212675Y375433D01*
X-212608Y375531D01*
X-212538Y375628D01*
X-212464Y375722D01*
X-212388Y375814D01*
X-212308Y375903D01*
X-212226Y375990D01*
X-212141Y376074D01*
X-212053Y376155D01*
X-211963Y376232D01*
X-211870Y376307D01*
X-211774Y376379D01*
X-211676Y376448D01*
X-211576Y376513D01*
X-211474Y376575D01*
X-211370Y376634D01*
X-211264Y376689D01*
X-211156Y376740D01*
X-211047Y376788D01*
X-210936Y376833D01*
X-210824Y376873D01*
X-210710Y376910D01*
X-210595Y376943D01*
X-210480Y376973D01*
X-210363Y376998D01*
X-210246Y377020D01*
X-210127Y377037D01*
X-210009Y377051D01*
X-209890Y377061D01*
X-209770Y377067D01*
X-209651Y377069D01*
X-209532Y377067D01*
X-209412Y377061D01*
X-209293Y377051D01*
X-209175Y377037D01*
X-209056Y377020D01*
X-208939Y376998D01*
X-208822Y376973D01*
X-208707Y376943D01*
X-208592Y376910D01*
X-208478Y376873D01*
X-208366Y376833D01*
X-208255Y376788D01*
X-208146Y376740D01*
X-208038Y376689D01*
X-207932Y376634D01*
X-207828Y376575D01*
X-207726Y376513D01*
X-207626Y376448D01*
X-207528Y376379D01*
X-207432Y376307D01*
X-207339Y376232D01*
X-207249Y376155D01*
X-207161Y376074D01*
X-207076Y375990D01*
X-206994Y375903D01*
X-206914Y375814D01*
X-206838Y375722D01*
X-206764Y375628D01*
X-206694Y375531D01*
X-206627Y375433D01*
X-206563Y375332D01*
X-206503Y375228D01*
X-206446Y375123D01*
X-206393Y375016D01*
X-206343Y374908D01*
X-206297Y374798D01*
X-206255Y374686D01*
X-206216Y374573D01*
X-206181Y374459D01*
X-206150Y374344D01*
X-206122Y374227D01*
X-206099Y374110D01*
X-206079Y373993D01*
X-206063Y373874D01*
X-206051Y373755D01*
X-206043Y373636D01*
X-206039Y373517D01*
X-206039Y373397D01*
X-206043Y373278D01*
X-206051Y373159D01*
X-206063Y373040D01*
X-206079Y372921D01*
X-206099Y372804D01*
X-206122Y372687D01*
X-206150Y372570D01*
X-206181Y372455D01*
X-206216Y372341D01*
X-206255Y372228D01*
X-206297Y372116D01*
X-206343Y372006D01*
X-206393Y371898D01*
X-206446Y371791D01*
X-206503Y371686D01*
X-206563Y371582D01*
X-206627Y371481D01*
X-206694Y371383D01*
X-206764Y371286D01*
X-206838Y371192D01*
X-206914Y371100D01*
X-206994Y371011D01*
X-207076Y370924D01*
X-207161Y370840D01*
X-207249Y370759D01*
X-207339Y370682D01*
X-207432Y370607D01*
X-207528Y370535D01*
X-207626Y370466D01*
X-207726Y370401D01*
X-207828Y370339D01*
X-207932Y370280D01*
X-208038Y370225D01*
X-208146Y370174D01*
X-208255Y370126D01*
X-208366Y370081D01*
X-208478Y370041D01*
X-208592Y370004D01*
X-208707Y369971D01*
X-208822Y369941D01*
X-208939Y369916D01*
X-209056Y369894D01*
X-209175Y369877D01*
X-209293Y369863D01*
X-209412Y369853D01*
X-209532Y369847D01*
X-209651Y369845D01*
X-205135Y384573D02*
X-205455Y384577D01*
X-205774Y384588D01*
X-206094Y384607D01*
X-206412Y384634D01*
X-206730Y384668D01*
X-207047Y384710D01*
X-207363Y384760D01*
X-207678Y384817D01*
X-207991Y384881D01*
X-208303Y384953D01*
X-208613Y385032D01*
X-208920Y385119D01*
X-209226Y385213D01*
X-209529Y385314D01*
X-209830Y385423D01*
X-210128Y385538D01*
X-210424Y385661D01*
X-210716Y385791D01*
X-211005Y385928D01*
X-211006Y385927D02*
X-211114Y385966D01*
X-211221Y386009D01*
X-211326Y386055D01*
X-211430Y386106D01*
X-211532Y386159D01*
X-211632Y386216D01*
X-211730Y386277D01*
X-211825Y386341D01*
X-211919Y386408D01*
X-212010Y386479D01*
X-212099Y386552D01*
X-212185Y386629D01*
X-212268Y386708D01*
X-212349Y386790D01*
X-212427Y386875D01*
X-212501Y386963D01*
X-212573Y387053D01*
X-212641Y387145D01*
X-212707Y387240D01*
X-212769Y387337D01*
X-212827Y387436D01*
X-212883Y387538D01*
X-212934Y387640D01*
X-212982Y387745D01*
X-213027Y387851D01*
X-213068Y387959D01*
X-213105Y388068D01*
X-213138Y388178D01*
X-213167Y388290D01*
X-213193Y388402D01*
X-213215Y388515D01*
X-213232Y388629D01*
X-213246Y388743D01*
X-213256Y388858D01*
X-213262Y388973D01*
X-213264Y389088D01*
X-213263Y389088D02*
X-213261Y389203D01*
X-213255Y389318D01*
X-213245Y389433D01*
X-213231Y389547D01*
X-213214Y389661D01*
X-213192Y389774D01*
X-213166Y389886D01*
X-213137Y389998D01*
X-213104Y390108D01*
X-213067Y390217D01*
X-213026Y390325D01*
X-212981Y390431D01*
X-212933Y390536D01*
X-212882Y390638D01*
X-212826Y390739D01*
X-212768Y390839D01*
X-212706Y390936D01*
X-212641Y391030D01*
X-212572Y391123D01*
X-212500Y391213D01*
X-212426Y391301D01*
X-212348Y391386D01*
X-212267Y391468D01*
X-212184Y391547D01*
X-212098Y391624D01*
X-212009Y391697D01*
X-211918Y391768D01*
X-211824Y391835D01*
X-211729Y391899D01*
X-211631Y391960D01*
X-211531Y392017D01*
X-211429Y392070D01*
X-211325Y392121D01*
X-211220Y392167D01*
X-211113Y392210D01*
X-211005Y392249D01*
X-211005Y392248D02*
X-210716Y392385D01*
X-210424Y392515D01*
X-210128Y392638D01*
X-209830Y392753D01*
X-209529Y392862D01*
X-209226Y392963D01*
X-208920Y393057D01*
X-208613Y393144D01*
X-208303Y393223D01*
X-207991Y393295D01*
X-207678Y393359D01*
X-207363Y393416D01*
X-207047Y393466D01*
X-206730Y393508D01*
X-206412Y393542D01*
X-206094Y393569D01*
X-205774Y393588D01*
X-205455Y393599D01*
X-205135Y393603D01*
X-205135Y384573D02*
X-204815Y384577D01*
X-204496Y384588D01*
X-204176Y384607D01*
X-203858Y384634D01*
X-203540Y384668D01*
X-203223Y384710D01*
X-202907Y384760D01*
X-202592Y384817D01*
X-202279Y384881D01*
X-201967Y384953D01*
X-201657Y385032D01*
X-201350Y385119D01*
X-201044Y385213D01*
X-200741Y385314D01*
X-200440Y385423D01*
X-200142Y385538D01*
X-199846Y385661D01*
X-199554Y385791D01*
X-199265Y385928D01*
X-199265Y385927D02*
X-199157Y385966D01*
X-199050Y386009D01*
X-198945Y386055D01*
X-198841Y386106D01*
X-198739Y386159D01*
X-198639Y386216D01*
X-198541Y386277D01*
X-198446Y386341D01*
X-198352Y386408D01*
X-198261Y386479D01*
X-198172Y386552D01*
X-198086Y386629D01*
X-198003Y386708D01*
X-197922Y386790D01*
X-197844Y386875D01*
X-197770Y386963D01*
X-197698Y387053D01*
X-197629Y387146D01*
X-197564Y387240D01*
X-197502Y387337D01*
X-197444Y387437D01*
X-197388Y387538D01*
X-197337Y387640D01*
X-197289Y387745D01*
X-197244Y387851D01*
X-197203Y387959D01*
X-197166Y388068D01*
X-197133Y388178D01*
X-197104Y388290D01*
X-197078Y388402D01*
X-197056Y388515D01*
X-197039Y388629D01*
X-197025Y388743D01*
X-197015Y388858D01*
X-197009Y388973D01*
X-197007Y389088D01*
X-199265Y392248D02*
X-199554Y392385D01*
X-199846Y392515D01*
X-200142Y392638D01*
X-200440Y392753D01*
X-200741Y392862D01*
X-201044Y392963D01*
X-201350Y393057D01*
X-201657Y393144D01*
X-201967Y393223D01*
X-202279Y393295D01*
X-202592Y393359D01*
X-202907Y393416D01*
X-203223Y393466D01*
X-203540Y393508D01*
X-203858Y393542D01*
X-204176Y393569D01*
X-204496Y393588D01*
X-204815Y393599D01*
X-205135Y393603D01*
X-199265Y392249D02*
X-199157Y392210D01*
X-199050Y392167D01*
X-198945Y392121D01*
X-198841Y392070D01*
X-198739Y392017D01*
X-198639Y391960D01*
X-198541Y391899D01*
X-198446Y391835D01*
X-198352Y391768D01*
X-198261Y391697D01*
X-198172Y391624D01*
X-198086Y391547D01*
X-198003Y391468D01*
X-197922Y391386D01*
X-197844Y391301D01*
X-197770Y391213D01*
X-197698Y391123D01*
X-197629Y391030D01*
X-197564Y390936D01*
X-197502Y390839D01*
X-197444Y390739D01*
X-197388Y390638D01*
X-197337Y390535D01*
X-197289Y390431D01*
X-197244Y390325D01*
X-197203Y390217D01*
X-197166Y390108D01*
X-197133Y389998D01*
X-197104Y389886D01*
X-197078Y389774D01*
X-197056Y389661D01*
X-197039Y389547D01*
X-197025Y389433D01*
X-197015Y389318D01*
X-197009Y389203D01*
X-197007Y389088D01*
X-200619Y385476D02*
X-209651Y392701D01*
X-197910Y399578D02*
X-197007Y399578D01*
X-197910Y399578D02*
X-197910Y400481D01*
X-197007Y400481D01*
X-197007Y399578D01*
X-205135Y406456D02*
X-205455Y406460D01*
X-205774Y406471D01*
X-206094Y406490D01*
X-206412Y406517D01*
X-206730Y406551D01*
X-207047Y406593D01*
X-207363Y406643D01*
X-207678Y406700D01*
X-207991Y406764D01*
X-208303Y406836D01*
X-208613Y406915D01*
X-208920Y407002D01*
X-209226Y407096D01*
X-209529Y407197D01*
X-209830Y407306D01*
X-210128Y407421D01*
X-210424Y407544D01*
X-210716Y407674D01*
X-211005Y407811D01*
X-211006Y407811D02*
X-211114Y407850D01*
X-211221Y407893D01*
X-211326Y407939D01*
X-211430Y407990D01*
X-211532Y408043D01*
X-211632Y408100D01*
X-211730Y408161D01*
X-211825Y408225D01*
X-211919Y408292D01*
X-212010Y408363D01*
X-212099Y408436D01*
X-212185Y408513D01*
X-212268Y408592D01*
X-212349Y408674D01*
X-212427Y408759D01*
X-212501Y408847D01*
X-212573Y408937D01*
X-212641Y409029D01*
X-212707Y409124D01*
X-212769Y409221D01*
X-212827Y409320D01*
X-212883Y409422D01*
X-212934Y409524D01*
X-212982Y409629D01*
X-213027Y409735D01*
X-213068Y409843D01*
X-213105Y409952D01*
X-213138Y410062D01*
X-213167Y410174D01*
X-213193Y410286D01*
X-213215Y410399D01*
X-213232Y410513D01*
X-213246Y410627D01*
X-213256Y410742D01*
X-213262Y410857D01*
X-213264Y410972D01*
X-213263Y410972D02*
X-213261Y411087D01*
X-213255Y411202D01*
X-213245Y411317D01*
X-213231Y411431D01*
X-213214Y411545D01*
X-213192Y411658D01*
X-213166Y411770D01*
X-213137Y411882D01*
X-213104Y411992D01*
X-213067Y412101D01*
X-213026Y412209D01*
X-212981Y412315D01*
X-212933Y412420D01*
X-212882Y412522D01*
X-212826Y412623D01*
X-212768Y412723D01*
X-212706Y412820D01*
X-212641Y412914D01*
X-212572Y413007D01*
X-212500Y413097D01*
X-212426Y413185D01*
X-212348Y413270D01*
X-212267Y413352D01*
X-212184Y413431D01*
X-212098Y413508D01*
X-212009Y413581D01*
X-211918Y413652D01*
X-211824Y413719D01*
X-211729Y413783D01*
X-211631Y413844D01*
X-211531Y413901D01*
X-211429Y413954D01*
X-211325Y414005D01*
X-211220Y414051D01*
X-211113Y414094D01*
X-211005Y414133D01*
X-211005Y414132D02*
X-210716Y414269D01*
X-210424Y414399D01*
X-210128Y414522D01*
X-209830Y414637D01*
X-209529Y414746D01*
X-209226Y414847D01*
X-208920Y414941D01*
X-208613Y415028D01*
X-208303Y415107D01*
X-207991Y415179D01*
X-207678Y415243D01*
X-207363Y415300D01*
X-207047Y415350D01*
X-206730Y415392D01*
X-206412Y415426D01*
X-206094Y415453D01*
X-205774Y415472D01*
X-205455Y415483D01*
X-205135Y415487D01*
X-205135Y406457D02*
X-204815Y406461D01*
X-204496Y406472D01*
X-204176Y406491D01*
X-203858Y406518D01*
X-203540Y406552D01*
X-203223Y406594D01*
X-202907Y406644D01*
X-202592Y406701D01*
X-202279Y406765D01*
X-201967Y406837D01*
X-201657Y406916D01*
X-201350Y407003D01*
X-201044Y407097D01*
X-200741Y407198D01*
X-200440Y407307D01*
X-200142Y407422D01*
X-199846Y407545D01*
X-199554Y407675D01*
X-199265Y407812D01*
X-199265Y407811D02*
X-199157Y407850D01*
X-199050Y407893D01*
X-198945Y407939D01*
X-198841Y407990D01*
X-198739Y408043D01*
X-198639Y408100D01*
X-198541Y408161D01*
X-198446Y408225D01*
X-198352Y408292D01*
X-198261Y408363D01*
X-198172Y408436D01*
X-198086Y408513D01*
X-198003Y408592D01*
X-197922Y408674D01*
X-197844Y408759D01*
X-197770Y408847D01*
X-197698Y408937D01*
X-197629Y409030D01*
X-197564Y409124D01*
X-197502Y409221D01*
X-197444Y409321D01*
X-197388Y409422D01*
X-197337Y409524D01*
X-197289Y409629D01*
X-197244Y409735D01*
X-197203Y409843D01*
X-197166Y409952D01*
X-197133Y410062D01*
X-197104Y410174D01*
X-197078Y410286D01*
X-197056Y410399D01*
X-197039Y410513D01*
X-197025Y410627D01*
X-197015Y410742D01*
X-197009Y410857D01*
X-197007Y410972D01*
X-199265Y414132D02*
X-199554Y414269D01*
X-199846Y414399D01*
X-200142Y414522D01*
X-200440Y414637D01*
X-200741Y414746D01*
X-201044Y414847D01*
X-201350Y414941D01*
X-201657Y415028D01*
X-201967Y415107D01*
X-202279Y415179D01*
X-202592Y415243D01*
X-202907Y415300D01*
X-203223Y415350D01*
X-203540Y415392D01*
X-203858Y415426D01*
X-204176Y415453D01*
X-204496Y415472D01*
X-204815Y415483D01*
X-205135Y415487D01*
X-199265Y414133D02*
X-199157Y414094D01*
X-199050Y414051D01*
X-198945Y414005D01*
X-198841Y413954D01*
X-198739Y413901D01*
X-198639Y413844D01*
X-198541Y413783D01*
X-198446Y413719D01*
X-198352Y413652D01*
X-198261Y413581D01*
X-198172Y413508D01*
X-198086Y413431D01*
X-198003Y413352D01*
X-197922Y413270D01*
X-197844Y413185D01*
X-197770Y413097D01*
X-197698Y413007D01*
X-197629Y412914D01*
X-197564Y412820D01*
X-197502Y412723D01*
X-197444Y412623D01*
X-197388Y412522D01*
X-197337Y412419D01*
X-197289Y412315D01*
X-197244Y412209D01*
X-197203Y412101D01*
X-197166Y411992D01*
X-197133Y411882D01*
X-197104Y411770D01*
X-197078Y411658D01*
X-197056Y411545D01*
X-197039Y411431D01*
X-197025Y411317D01*
X-197015Y411202D01*
X-197009Y411087D01*
X-197007Y410972D01*
X-200619Y407359D02*
X-209651Y414584D01*
X-205135Y422088D02*
X-205455Y422092D01*
X-205774Y422103D01*
X-206094Y422122D01*
X-206412Y422149D01*
X-206730Y422183D01*
X-207047Y422225D01*
X-207363Y422275D01*
X-207678Y422332D01*
X-207991Y422396D01*
X-208303Y422468D01*
X-208613Y422547D01*
X-208920Y422634D01*
X-209226Y422728D01*
X-209529Y422829D01*
X-209830Y422938D01*
X-210128Y423053D01*
X-210424Y423176D01*
X-210716Y423306D01*
X-211005Y423443D01*
X-211006Y423442D02*
X-211114Y423481D01*
X-211221Y423524D01*
X-211326Y423570D01*
X-211430Y423621D01*
X-211532Y423674D01*
X-211632Y423731D01*
X-211730Y423792D01*
X-211825Y423856D01*
X-211919Y423923D01*
X-212010Y423994D01*
X-212099Y424067D01*
X-212185Y424144D01*
X-212268Y424223D01*
X-212349Y424305D01*
X-212427Y424390D01*
X-212501Y424478D01*
X-212573Y424568D01*
X-212641Y424660D01*
X-212707Y424755D01*
X-212769Y424852D01*
X-212827Y424951D01*
X-212883Y425053D01*
X-212934Y425155D01*
X-212982Y425260D01*
X-213027Y425366D01*
X-213068Y425474D01*
X-213105Y425583D01*
X-213138Y425693D01*
X-213167Y425805D01*
X-213193Y425917D01*
X-213215Y426030D01*
X-213232Y426144D01*
X-213246Y426258D01*
X-213256Y426373D01*
X-213262Y426488D01*
X-213264Y426603D01*
X-213263Y426603D02*
X-213261Y426718D01*
X-213255Y426833D01*
X-213245Y426948D01*
X-213231Y427062D01*
X-213214Y427176D01*
X-213192Y427289D01*
X-213166Y427401D01*
X-213137Y427513D01*
X-213104Y427623D01*
X-213067Y427732D01*
X-213026Y427840D01*
X-212981Y427946D01*
X-212933Y428051D01*
X-212882Y428153D01*
X-212826Y428254D01*
X-212768Y428354D01*
X-212706Y428451D01*
X-212641Y428545D01*
X-212572Y428638D01*
X-212500Y428728D01*
X-212426Y428816D01*
X-212348Y428901D01*
X-212267Y428983D01*
X-212184Y429062D01*
X-212098Y429139D01*
X-212009Y429212D01*
X-211918Y429283D01*
X-211824Y429350D01*
X-211729Y429414D01*
X-211631Y429475D01*
X-211531Y429532D01*
X-211429Y429585D01*
X-211325Y429636D01*
X-211220Y429682D01*
X-211113Y429725D01*
X-211005Y429764D01*
X-211005Y429763D02*
X-210716Y429900D01*
X-210424Y430030D01*
X-210128Y430153D01*
X-209830Y430268D01*
X-209529Y430377D01*
X-209226Y430478D01*
X-208920Y430572D01*
X-208613Y430659D01*
X-208303Y430738D01*
X-207991Y430810D01*
X-207678Y430874D01*
X-207363Y430931D01*
X-207047Y430981D01*
X-206730Y431023D01*
X-206412Y431057D01*
X-206094Y431084D01*
X-205774Y431103D01*
X-205455Y431114D01*
X-205135Y431118D01*
X-205135Y422088D02*
X-204815Y422092D01*
X-204496Y422103D01*
X-204176Y422122D01*
X-203858Y422149D01*
X-203540Y422183D01*
X-203223Y422225D01*
X-202907Y422275D01*
X-202592Y422332D01*
X-202279Y422396D01*
X-201967Y422468D01*
X-201657Y422547D01*
X-201350Y422634D01*
X-201044Y422728D01*
X-200741Y422829D01*
X-200440Y422938D01*
X-200142Y423053D01*
X-199846Y423176D01*
X-199554Y423306D01*
X-199265Y423443D01*
X-199265Y423442D02*
X-199157Y423481D01*
X-199050Y423524D01*
X-198945Y423570D01*
X-198841Y423621D01*
X-198739Y423674D01*
X-198639Y423731D01*
X-198541Y423792D01*
X-198446Y423856D01*
X-198352Y423923D01*
X-198261Y423994D01*
X-198172Y424067D01*
X-198086Y424144D01*
X-198003Y424223D01*
X-197922Y424305D01*
X-197844Y424390D01*
X-197770Y424478D01*
X-197698Y424568D01*
X-197629Y424661D01*
X-197564Y424755D01*
X-197502Y424852D01*
X-197444Y424952D01*
X-197388Y425053D01*
X-197337Y425155D01*
X-197289Y425260D01*
X-197244Y425366D01*
X-197203Y425474D01*
X-197166Y425583D01*
X-197133Y425693D01*
X-197104Y425805D01*
X-197078Y425917D01*
X-197056Y426030D01*
X-197039Y426144D01*
X-197025Y426258D01*
X-197015Y426373D01*
X-197009Y426488D01*
X-197007Y426603D01*
X-199265Y429763D02*
X-199554Y429900D01*
X-199846Y430030D01*
X-200142Y430153D01*
X-200440Y430268D01*
X-200741Y430377D01*
X-201044Y430478D01*
X-201350Y430572D01*
X-201657Y430659D01*
X-201967Y430738D01*
X-202279Y430810D01*
X-202592Y430874D01*
X-202907Y430931D01*
X-203223Y430981D01*
X-203540Y431023D01*
X-203858Y431057D01*
X-204176Y431084D01*
X-204496Y431103D01*
X-204815Y431114D01*
X-205135Y431118D01*
X-199265Y429764D02*
X-199157Y429725D01*
X-199050Y429682D01*
X-198945Y429636D01*
X-198841Y429585D01*
X-198739Y429532D01*
X-198639Y429475D01*
X-198541Y429414D01*
X-198446Y429350D01*
X-198352Y429283D01*
X-198261Y429212D01*
X-198172Y429139D01*
X-198086Y429062D01*
X-198003Y428983D01*
X-197922Y428901D01*
X-197844Y428816D01*
X-197770Y428728D01*
X-197698Y428638D01*
X-197629Y428545D01*
X-197564Y428451D01*
X-197502Y428354D01*
X-197444Y428254D01*
X-197388Y428153D01*
X-197337Y428050D01*
X-197289Y427946D01*
X-197244Y427840D01*
X-197203Y427732D01*
X-197166Y427623D01*
X-197133Y427513D01*
X-197104Y427401D01*
X-197078Y427289D01*
X-197056Y427176D01*
X-197039Y427062D01*
X-197025Y426948D01*
X-197015Y426833D01*
X-197009Y426718D01*
X-197007Y426603D01*
X-200619Y422991D02*
X-209651Y430215D01*
D12*
X368300Y177800D03*
X393700Y177800D03*
X368300Y393700D03*
X393700Y393700D03*
D13*
X279400Y190500D03*
X254000Y190500D03*
D14*
X215900Y190500D03*
X215900Y266700D03*
D15*
X355600Y342900D03*
X431800Y342900D03*
D13*
X431800Y558800D03*
X355600Y558800D03*
X139700Y558800D03*
X63500Y558800D03*
D16*
X76200Y51200D03*
D17*
X51200Y76200D03*
X76200Y101200D03*
D16*
X355200Y76200D03*
D17*
X330200Y51200D03*
X305200Y76200D03*
D18*
X61900Y419100D03*
D19*
X61900Y393700D03*
X61900Y368300D03*
X61900Y342900D03*
X61900Y317500D03*
X61900Y292100D03*
X61900Y266700D03*
X141300Y266700D03*
X141300Y292100D03*
X141300Y317500D03*
X141300Y342900D03*
X141300Y368300D03*
X141300Y393700D03*
X141300Y419100D03*
D20*
X342900Y442900D03*
D21*
X368300Y442900D03*
X393700Y442900D03*
X419100Y442900D03*
X419100Y522300D03*
X393700Y522300D03*
X368300Y522300D03*
X342900Y522300D03*
D20*
X342900Y227000D03*
D21*
X368300Y227000D03*
X393700Y227000D03*
X419100Y227000D03*
X419100Y306400D03*
X393700Y306400D03*
X368300Y306400D03*
X342900Y306400D03*
D22*
X393700Y635000D03*
X393700Y685800D03*
D23*
X69088Y660400D03*
X134112Y660400D03*
D24*
X393954Y634238D02*
X393954Y603504D01*
X354838Y564388D01*
X354838Y558800D01*
X393954Y634238D02*
X393700Y635000D01*
X355600Y558800D02*
X354838Y558800D01*
X304546Y86614D02*
X304546Y78232D01*
X304546Y86614D02*
X301752Y89408D01*
X301752Y120142D01*
X237490Y184404D01*
X237490Y391160D01*
X366014Y519684D01*
X304546Y78232D02*
X305200Y76200D01*
X366014Y519684D02*
X368300Y522300D01*
X374396Y502920D02*
X391160Y519684D01*
X374396Y502920D02*
X374396Y455422D01*
X368808Y449834D01*
X368808Y444246D01*
X391160Y519684D02*
X393700Y522300D01*
X368808Y444246D02*
X368300Y442900D01*
X391160Y226314D02*
X391160Y223520D01*
X366014Y198374D01*
X293370Y198374D01*
X284988Y189992D01*
X279400Y189992D01*
X391160Y226314D02*
X393700Y227000D01*
X279400Y190500D02*
X279400Y189992D01*
M02*
