G04 EAGLE Gerber RS-274X export*
G75*
%MOMM*%
%FSLAX34Y34*%
%LPD*%
%INSoldermask Bottom*%
%IPPOS*%
%AMOC8*
5,1,8,0,0,1.08239X$1,22.5*%
G01*
%ADD10P,1.951982X8X22.500000*%
%ADD11P,1.649562X8X202.500000*%
%ADD12P,1.649562X8X112.500000*%
%ADD13P,1.649562X8X22.500000*%
%ADD14R,1.611200X1.611200*%
%ADD15C,1.611200*%
%ADD16R,1.481200X1.481200*%
%ADD17C,1.481200*%
%ADD18R,1.451200X1.451200*%
%ADD19C,1.451200*%
%ADD20P,2.556822X8X22.500000*%


D10*
X368300Y177800D03*
X393700Y177800D03*
X368300Y393700D03*
X393700Y393700D03*
D11*
X279400Y190500D03*
X254000Y190500D03*
D12*
X215900Y190500D03*
X215900Y266700D03*
D13*
X355600Y342900D03*
X431800Y342900D03*
D11*
X431800Y558800D03*
X355600Y558800D03*
X139700Y558800D03*
X63500Y558800D03*
D14*
X76200Y51200D03*
D15*
X51200Y76200D03*
X76200Y101200D03*
D14*
X355200Y76200D03*
D15*
X330200Y51200D03*
X305200Y76200D03*
D16*
X61900Y419100D03*
D17*
X61900Y393700D03*
X61900Y368300D03*
X61900Y342900D03*
X61900Y317500D03*
X61900Y292100D03*
X61900Y266700D03*
X141300Y266700D03*
X141300Y292100D03*
X141300Y317500D03*
X141300Y342900D03*
X141300Y368300D03*
X141300Y393700D03*
X141300Y419100D03*
D18*
X342900Y442900D03*
D19*
X368300Y442900D03*
X393700Y442900D03*
X419100Y442900D03*
X419100Y522300D03*
X393700Y522300D03*
X368300Y522300D03*
X342900Y522300D03*
D18*
X342900Y227000D03*
D19*
X368300Y227000D03*
X393700Y227000D03*
X419100Y227000D03*
X419100Y306400D03*
X393700Y306400D03*
X368300Y306400D03*
X342900Y306400D03*
D20*
X69088Y660400D03*
X134112Y660400D03*
M02*
