M48
;GenerationSoftware,Autodesk,EAGLE,9.6.2*%
;CreationDate,2023-03-23T03:55:30Z*%
FMAT,2
ICI,OFF
METRIC,TZ,000.000
T6C0.740
T5C0.770
T4C0.813
T3C0.900
T2C0.914
%
G90
M71
T2
X13411Y66040
X6909Y66040
T3
X30520Y7620
X33020Y5120
X35520Y7620
X7620Y10120
X5120Y7620
X7620Y5120
T4
X39370Y17780
X6350Y55880
X13970Y55880
X43180Y55880
X36830Y17780
X36830Y39370
X39370Y39370
X27940Y19050
X25400Y19050
X21590Y26670
X35560Y55880
X43180Y34290
X21590Y19050
X35560Y34290
T5
X6190Y39370
X14130Y41910
X14130Y39370
X14130Y36830
X14130Y34290
X14130Y31750
X14130Y26670
X6190Y41910
X6190Y36830
X6190Y34290
X6190Y29210
X14130Y29210
X6190Y26670
X6190Y31750
T6
X36830Y22700
X34290Y44290
X34290Y30640
X36830Y30640
X39370Y30640
X41910Y30640
X41910Y22700
X39370Y22700
X36830Y44290
X34290Y22700
X34290Y52230
X36830Y52230
X39370Y52230
X41910Y52230
X41910Y44290
X39370Y44290
M30